<svg width="20" height="20" viewBox="0 0 20 20" fill="none" xmlns="http://www.w3.org/2000/svg">
<g clip-path="url(#clip0_500_7438)">
<path d="M8.33338 15H11.6667M1.95921 11.0116C1.66504 9.09663 1.51754 8.13996 1.88004 7.29079C2.24171 6.44246 3.04504 5.86163 4.65088 4.70079L5.85088 3.83329C7.84838 2.38913 8.84754 1.66663 10 1.66663C11.1525 1.66663 12.1517 2.38913 14.1492 3.83329L15.3492 4.70079C16.955 5.86163 17.7575 6.44246 18.12 7.29079C18.4817 8.13996 18.335 9.09663 18.0409 11.0108L17.79 12.6441C17.3734 15.3575 17.1642 16.7141 16.1909 17.5241C15.2175 18.3341 13.795 18.3333 10.9492 18.3333H9.05004C6.20421 18.3333 4.78171 18.3333 3.80838 17.5241C2.83504 16.7141 2.62671 15.3575 2.20921 12.6433L1.95921 11.0116Z" stroke="#626576" stroke-width="1.5" stroke-linecap="round" stroke-linejoin="round"/>
</g>
<defs>
<clipPath id="clip0_500_7438">
<rect width="20" height="20" fill="white"/>
</clipPath>
</defs>
</svg>
